<svg id="Layer_1" data-name="Layer 1" xmlns="http://www.w3.org/2000/svg" viewBox="0 0 567.05 340.16"><defs><style>.cls-1{fill:#18222b;}.cls-2{fill:#1c2833;}.cls-3{fill:#fff;}.cls-4{fill:#204169;}.cls-5{fill:#283f5e;}.cls-6{fill:#a3bacc;}.cls-7{fill:#62788a;}.cls-8{fill:#db3549;}.cls-9{fill:#dedfe0;}.cls-10{fill:#e4e5e6;}.cls-11{fill:#33b0bc;}.cls-12{fill:#a3a4a5;}.cls-13{fill:#74cdd9;}.cls-14{fill:#abdfe7;}.cls-15{fill:#253b59;}.cls-16{fill:#0090c4;}.cls-17{fill:#bed630;}.cls-18{fill:#9bd6c8;}.cls-19{fill:#4faf98;}.cls-20{fill:#47ad94;}.cls-21{fill:#3d8a77;}.cls-22{fill:#febe10;}.cls-23{fill:#f2b42c;}.cls-24{fill:#a52438;}.cls-25{fill:#066272;}.cls-26{fill:#187080;}.cls-27{fill:#075361;}.cls-28{fill:#00878f;}.cls-29{fill:#026f75;}.cls-30{fill:#00b9ad;}.cls-31{fill:#00a69b;}.cls-32{fill:#c6e6f4;}</style></defs><title>bg12</title><rect class="cls-1" width="566.93" height="340.16"/><path class="cls-2" d="M541.5,92.5c8.22-4.93,3,58.71-41,80.88-28.65,14.44-17,45.54,11,71.9s42,64.71,4.5,23.22c-58.5-64.71-156.5-67-155-77.74s60.5,2.39,63.5-18.58-113.55-48-112.67-54c1.5-10.19,82.18,17,118.67,23.46,34,6,61.5,9,88-13.18C531.46,117.6,537.5,94.89,541.5,92.5ZM172.67,228.21c22,13.59-38.67,7.19-61.34,14.38S73.17,276.37,120.5,254,238,259.37,250,251.38,200.52,219,172.67,209.84C146,201.05,150.67,214.63,172.67,228.21Zm-38-132.93c-88.67,28,12.67,49.05,148,113.76,77.65,37.13,78.66,104.66-100.67,75.9-80-12.83-129.66,27.94-137.81,55.22H545.26A64.84,64.84,0,0,0,542,328.07c-32.67-91.87-278.67-119.82-262-140.6s69.66,8.56,66-20C343.33,146.73,200.67,145.13,236.67,94S470,173.89,524,94.8C556.46,47.26,472.08,16.31,399.6,0H40C187.33,32.61,202.59,73.86,134.67,95.28Z" transform="translate(0 0)"/><path class="cls-3" d="M423.08,43.73a2.23,2.23,0,0,1-2-2c-.07-.83-.62-4.48-.62-4.48s-.47,3.66-.62,4.48a2.19,2.19,0,0,1-2,2l-4.47.62,4.47.63a2.11,2.11,0,0,1,2,2c.11.82.62,4.47.62,4.47s.54-3.64.63-4.47a2.16,2.16,0,0,1,2-2c.82-.09,4.47-.62,4.47-.62S423.9,43.83,423.08,43.73Z" transform="translate(0 0)"/><path class="cls-3" d="M183.76,256.42a2.39,2.39,0,0,1-2.12-2.12c-.07-.89-.66-4.8-.66-4.8s-.51,3.92-.67,4.8a2.37,2.37,0,0,1-2.12,2.12l-4.8.66s3.92.56,4.8.67a2.28,2.28,0,0,1,2.12,2.12c.12.88.67,4.8.67,4.8s.57-3.92.66-4.8a2.33,2.33,0,0,1,2.12-2.12c.88-.1,4.8-.67,4.8-.67S184.64,256.52,183.76,256.42Z" transform="translate(0 0)"/><path class="cls-3" d="M517.7,197.44a2.47,2.47,0,0,1-2.19-2.19c-.08-.92-.69-5-.69-5s-.53,4.06-.69,5a2.44,2.44,0,0,1-2.19,2.19l-5,.69,5,.69a2.35,2.35,0,0,1,2.19,2.19c.12.91.69,5,.69,5s.6-4,.69-5a2.41,2.41,0,0,1,2.19-2.19c.92-.1,5-.69,5-.69S518.62,197.55,517.7,197.44Z" transform="translate(0 0)"/><path class="cls-3" d="M39.2,89.44A2.47,2.47,0,0,1,37,87.25c-.08-.92-.69-5-.69-5s-.53,4.06-.69,5a2.43,2.43,0,0,1-2.19,2.19l-5,.69,5,.69A2.35,2.35,0,0,1,35.63,93c.12.92.69,5,.69,5s.6-4,.69-5a2.41,2.41,0,0,1,2.19-2.19c.92-.1,5-.69,5-.69S40.12,89.55,39.2,89.44Z" transform="translate(0 0)"/><path class="cls-3" d="M257,28.85a1.36,1.36,0,0,1-1.21-1.21c0-.51-.38-2.75-.38-2.75s-.3,2.25-.39,2.75a1.34,1.34,0,0,1-1.21,1.21l-2.75.38,2.75.39A1.29,1.29,0,0,1,255,30.83l.39,2.75s.33-2.24.38-2.75A1.34,1.34,0,0,1,257,29.61c.51-.05,2.75-.38,2.75-.38S257.51,28.91,257,28.85Z" transform="translate(0 0)"/><circle class="cls-4" cx="486" cy="134.11" r="4.5"/><circle class="cls-4" cx="102" cy="160.61" r="4.5"/><path class="cls-4" d="M414.47,178.11a2,2,0,1,1-2-2A2,2,0,0,1,414.47,178.11Z" transform="translate(0 0)"/><path class="cls-4" d="M108,64.36a1.72,1.72,0,1,1-1.72-1.71A1.72,1.72,0,0,1,108,64.36Z" transform="translate(0 0)"/><circle class="cls-4" cx="273" cy="262.5" r="3.44"/><path class="cls-4" d="M127.73,265a5.4,5.4,0,1,1-5.4-5.4A5.4,5.4,0,0,1,127.73,265Z" transform="translate(0 0)"/><path class="cls-5" d="M118.85,240.17a14.11,14.11,0,1,1-7-18.68A14.12,14.12,0,0,1,118.85,240.17Z" transform="translate(0 0)"/><path class="cls-6" d="M117.51,239.56a12.64,12.64,0,1,1-6.28-16.74A12.64,12.64,0,0,1,117.51,239.56Z" transform="translate(0 0)"/><path class="cls-7" d="M115.1,226.19a4.28,4.28,0,0,0,.17-.46,12.83,12.83,0,0,0-4-2.91,11.77,11.77,0,0,0-1.46-.55,3.34,3.34,0,0,0-.83,1.12,3.38,3.38,0,0,0,6.16,2.8Z" transform="translate(0 0)"/><path class="cls-7" d="M100,237.67a1.37,1.37,0,1,0-1.13,2.5,1.37,1.37,0,0,0,1.13-2.5Z" transform="translate(0 0)"/><path class="cls-7" d="M102.88,234.25a4.28,4.28,0,1,0-5.67,2.12A4.28,4.28,0,0,0,102.88,234.25Z" transform="translate(0 0)"/><path class="cls-7" d="M112.62,236.29a1.59,1.59,0,1,0,2.11-.8A1.59,1.59,0,0,0,112.62,236.29Z" transform="translate(0 0)"/><path class="cls-7" d="M112.21,245.34a2.11,2.11,0,0,0-1-1.05,2.14,2.14,0,0,0-3,2.49A12.67,12.67,0,0,0,112.21,245.34Z" transform="translate(0 0)"/><path class="cls-3" d="M291.36,127.61s1.77,4.25,5.18,5.74a35,35,0,0,1-1.58,4.51s-5.1-2.45-7.37-7A11.09,11.09,0,0,1,291.36,127.61Z" transform="translate(0 0)"/><path class="cls-8" d="M296.07,133.38s2.6-1.36,3.32-.58-.57,1.8-.57,1.8,3,1,3,2-1.37.57-1.37.57,1.14,1.11.87,1.77-1.12.57-1.73.36c.64.68.31,1.05-.2,1.29-.88.4-3.62-.58-4.95-3C294,136.85,295.51,134,296.07,133.38Z" transform="translate(0 0)"/><path class="cls-8" d="M294.48,131.79s-2.66,2.68-3,3.86a1.09,1.09,0,0,1-1.1-.93,9.53,9.53,0,0,1,3.09-3.78C294.06,131,294.48,131.79,294.48,131.79Z" transform="translate(0 0)"/><path class="cls-3" d="M279.75,121.17s-4.5,1-7.67-1a34.59,34.59,0,0,0-2.81,3.86s4.92,2.81,9.93,2.08A11.07,11.07,0,0,0,279.75,121.17Z" transform="translate(0 0)"/><path class="cls-8" d="M272.32,120.6s-.36-2.92-1.42-3.06-1.15,1.49-1.15,1.49-2.53-1.85-3.34-1.37.32,1.45.32,1.45-1.57-.3-2,.29.17,1.25.69,1.63c-.93-.14-1,.34-.94.9.16.95,2.53,2.64,5.25,2.37C270.63,124.24,272.17,121.38,272.32,120.6Z" transform="translate(0 0)"/><path class="cls-8" d="M274.53,121s-.68,3.7-1.45,4.67a1.08,1.08,0,0,0,1.4.37,9.42,9.42,0,0,0,1.34-4.69C275.47,120.85,274.53,121,274.53,121Z" transform="translate(0 0)"/><path class="cls-3" d="M280,120.88s-9.82,10-11.51,19.49a24.16,24.16,0,0,0,3.68,3.4,65,65,0,0,0,5.16-6,6.47,6.47,0,0,0,1.7.76c-.81,2.49-2.29,6.45-2.17,8a14.76,14.76,0,0,0,5,1.39s7.78-8.93,9.13-20.22C288.05,125.6,280,120.88,280,120.88Z" transform="translate(0 0)"/><path class="cls-8" d="M288.9,135.49a12.25,12.25,0,0,1-7.52,1.62,4.71,4.71,0,0,0-1,.76s3.14,1.66,7.84-.78A1.92,1.92,0,0,0,288.9,135.49Z" transform="translate(0 0)"/><path class="cls-8" d="M288.9,135.68a.94.94,0,0,0,0-.19,11.37,11.37,0,0,1-2.33,1.06A12.2,12.2,0,0,0,288.9,135.68Z" transform="translate(0 0)"/><path class="cls-9" d="M287.36,134.21c-1.13,2.1-4.51,2.47-7.54.83s-4.57-4.67-3.43-6.76,4.5-2.47,7.54-.83S288.5,132.12,287.36,134.21Z" transform="translate(0 0)"/><path class="cls-8" d="M286.94,134c-1.05,1.93-4.16,2.27-7,.76s-4.22-4.31-3.17-6.25,4.16-2.27,7-.76S288,132.05,286.94,134Z" transform="translate(0 0)"/><path class="cls-8" d="M274.36,127.62a12.23,12.23,0,0,0,2.76,7.19,5.09,5.09,0,0,1-.08,1.27s-3-2-3.64-7A1.93,1.93,0,0,1,274.36,127.62Z" transform="translate(0 0)"/><path class="cls-8" d="M274.36,127.74v-.12h0A.43.43,0,0,1,274.36,127.74Z" transform="translate(0 0)"/><path class="cls-3" d="M280,129a1.27,1.27,0,0,1-2.23-1.21A1.27,1.27,0,0,1,280,129Z" transform="translate(0 0)"/><path class="cls-3" d="M287,132.79a1.21,1.21,0,1,1-.49-1.64A1.21,1.21,0,0,1,287,132.79Z" transform="translate(0 0)"/><path class="cls-3" d="M282.63,129a1.09,1.09,0,1,1-.44-1.48A1.09,1.09,0,0,1,282.63,129Z" transform="translate(0 0)"/><path class="cls-3" d="M285.21,130.38a1.09,1.09,0,1,1-.43-1.48A1.09,1.09,0,0,1,285.21,130.38Z" transform="translate(0 0)"/><path class="cls-10" d="M281.73,134.46a.47.47,0,0,1-.65.2l-1.58-.86a.47.47,0,0,1-.19-.65l1.58-2.92a.48.48,0,0,1,.65-.19l1.58.86a.47.47,0,0,1,.19.64Z" transform="translate(0 0)"/><path class="cls-11" d="M275.74,125.85l-.86,1.19s-1.78.09-.83.86,3,.44,4.48-.06c.91-.22,1.42,1,.14,1.47-1.6.41-3.49.83-5.19,0s-1.91-2.29-.59-3.08A4.5,4.5,0,0,1,275.74,125.85Z" transform="translate(0 0)"/><path class="cls-11" d="M289.72,133.42l-.52,1.37s.93,1.55-.26,1.16-2.08-2.32-2.48-3.82c-.32-.89-1.65-.65-1.32.68.55,1.58,1.26,3.4,2.94,4.38s3,.38,2.93-1.17A4.54,4.54,0,0,0,289.72,133.42Z" transform="translate(0 0)"/><path class="cls-12" d="M291.5,128c-.68,1.25-4,.78-7.35-1s-5.58-4.33-4.9-5.58,4-.79,7.35,1S292.17,126.77,291.5,128Z" transform="translate(0 0)"/><path class="cls-8" d="M268.26,140.27s-3.8,2.08-2.42,4.38,6,1.56,7.16-1.5C273.59,142.27,270.15,138.84,268.26,140.27Z" transform="translate(0 0)"/><path class="cls-3" d="M269.66,144.8a.29.29,0,0,1-.16-.2,2.76,2.76,0,0,0-2.74-2.37.33.33,0,0,1-.34-.3.32.32,0,0,1,.3-.34,3.44,3.44,0,0,1,3.39,2.86.31.31,0,0,1-.23.38A.28.28,0,0,1,269.66,144.8Z" transform="translate(0 0)"/><path class="cls-3" d="M270.72,143.94a.36.36,0,0,1-.16-.2,2.79,2.79,0,0,0-2.74-2.38.31.31,0,0,1-.33-.29.31.31,0,0,1,.29-.34,3.44,3.44,0,0,1,3.4,2.86.31.31,0,0,1-.23.38A.31.31,0,0,1,270.72,143.94Z" transform="translate(0 0)"/><path class="cls-8" d="M281.85,147.63s.34,4.31-2.35,4.41-4.57-4.14-2.65-6.81C277.26,144.25,282,145.26,281.85,147.63Z" transform="translate(0 0)"/><path class="cls-3" d="M277.29,148.93a.28.28,0,0,0,.25,0,2.78,2.78,0,0,1,3.5,1,.32.32,0,1,0,.55-.31,3.42,3.42,0,0,0-4.25-1.28.31.31,0,0,0-.19.4A.27.27,0,0,0,277.29,148.93Z" transform="translate(0 0)"/><path class="cls-3" d="M277.43,147.57a.28.28,0,0,0,.25,0,2.79,2.79,0,0,1,3.5,1,.32.32,0,1,0,.55-.31,3.44,3.44,0,0,0-4.25-1.28.33.33,0,0,0-.2.4A.28.28,0,0,0,277.43,147.57Z" transform="translate(0 0)"/><path class="cls-11" d="M277.12,134.9s-.41,2.1.2,2.84a2.78,2.78,0,0,0,1.55.86,6.88,6.88,0,0,0,2.5-1.46C281.7,136.44,277.28,134.33,277.12,134.9Z" transform="translate(0 0)"/><path class="cls-3" d="M282.5,113.23c-1,1.9-3.05,2.81-4.51,2s-1.8-3-.77-4.88,3-2.81,4.5-2S283.53,111.33,282.5,113.23Z" transform="translate(0 0)"/><path class="cls-8" d="M283.22,113.72c-1.34,2.49-3.6,3.87-5,3.09s-1.52-3.42-.17-5.91,3.6-3.86,5-3.09S284.57,111.24,283.22,113.72Z" transform="translate(0 0)"/><path class="cls-3" d="M296.82,121c-1,1.91-.68,4.09.77,4.88s3.48-.11,4.51-2,.68-4.08-.78-4.87S297.85,119.07,296.82,121Z" transform="translate(0 0)"/><path class="cls-8" d="M296,120.64c-1.34,2.48-1.27,5.13.17,5.91s3.69-.61,5-3.1,1.26-5.13-.17-5.9S297.35,118.15,296,120.64Z" transform="translate(0 0)"/><path class="cls-3" d="M300.48,122.61c-2.85,5.27-9.9,7-15.76,3.8s-8.29-10-5.45-15.27,9.91-7,15.76-3.8S303.33,117.35,300.48,122.61Z" transform="translate(0 0)"/><path class="cls-13" d="M292.71,111.37c-4-2.18-8.81-1.15-10.68,2.3s-.11,8,3.92,10.2,8.8,1.15,10.67-2.31S296.74,113.54,292.71,111.37Z" transform="translate(0 0)"/><path class="cls-8" d="M293.08,110.69c-4.47-2.41-9.76-1.27-11.83,2.56s-.13,8.88,4.33,11.29,9.76,1.27,11.83-2.55S297.54,113.1,293.08,110.69Zm-7.14,13.18c-3.87-2.09-5.55-6.49-3.75-9.8s6.39-4.32,10.26-2.22,5.56,6.49,3.76,9.81S289.82,126,285.94,123.87Z" transform="translate(0 0)"/><path class="cls-14" d="M283.16,115.91c1.7-3.15,6.06-4.09,9.73-2.1a8.57,8.57,0,0,1,2.95,2.63,7.9,7.9,0,0,0-3.67-4.08c-3.54-1.92-7.75-1-9.39,2a5.76,5.76,0,0,0-.28,4.74A5.69,5.69,0,0,1,283.16,115.91Z" transform="translate(0 0)"/><path class="cls-15" d="M93,81.5a24.42,24.42,0,1,1,11.2-32.67A24.43,24.43,0,0,1,93,81.5Z" transform="translate(0 0)"/><path class="cls-16" d="M91.38,78.12a20.66,20.66,0,1,1,9.48-27.63A20.65,20.65,0,0,1,91.38,78.12Z" transform="translate(0 0)"/><path class="cls-17" d="M85.35,75.15c1.14,0,1.59.74,1,1.45s-2.81.94-3,.2S84.37,75.13,85.35,75.15ZM99.48,66.8c-.52-1.48.93-2.88.17-4.24-.45-.81-2-1.13-2.25-2-.19-.64-.41-2.6-.68-3.21-.52-1.16-2.94.32-4.2.14A8.33,8.33,0,0,1,87.67,55a3.21,3.21,0,0,0-1.62-1.18c-1-.13-3.11,1-3,2.06s1.52,2.35,2.22,3.08,2,.92,2.34,1.89a3,3,0,0,1-.79,3,1.08,1.08,0,0,1-.24.18c-1.23.51-1.75-1.77-1.62-2.51a4.66,4.66,0,0,0,.12-.63c0-.56.09-1.37-.43-1.6s-2,.09-2.34-.52c-.18-.28-.22-.72-.54-.81a.64.64,0,0,0-.36,0c-1.42.49-2.27,2.46-2.35,3.83a5.54,5.54,0,0,1-.38,2.58c-.8,1.31-3.15,1.55-3.17,3.08,0,.43.21.84.23,1.27.06.93-.71,1.66-1.24,2.43s-.26,4,.59,4.36c1.19,0,1.93-2.13,3-2.54,1.5-.55,3-1.45,4.56-1,1,.29,1.87,1.13,2.88.94s1.62-1.57,2.69-1.91a1.71,1.71,0,0,1,2,2.12c-.2.53-1.45,1.59-1.59,2.13-.22.92-.22,1.81.61,2.27.47.26,2.56-.22,3,.06a20.57,20.57,0,0,0,8-7.91C99.47,69.25,99.78,67.69,99.48,66.8ZM90.8,49.28A6.61,6.61,0,0,1,87,49.12c-.65-.26-3.56-2.52-3.43-3.21.17-.85,4.55.76,5.07.07.66-.9-.08-2.14-.81-3a6.54,6.54,0,0,0-3-2.38,1.6,1.6,0,0,0-1.88.58,5,5,0,0,0-.19,1.28,1.84,1.84,0,0,1-3,.81c-.36-.43-.51-1-.86-1.45-.82-1-2.49-1-3.43-1.73a20.62,20.62,0,0,1,14.2.15c.38.22.81.42,1.08.6a5,5,0,0,1,2,2.41,25.9,25.9,0,0,0,1.47,2.47,13.23,13.23,0,0,1,1,3c.06.79-1.8.29-2.58.33S91.59,49.27,90.8,49.28ZM64,57.72c-1,.15-1.25.6-2.24.29a20.89,20.89,0,0,1,.79-4.3,2.66,2.66,0,0,0,.59-.44c.89-.83,1-2.28,1.89-3.08a7.33,7.33,0,0,1,2.17-1c.75-.3,1.5-.91,1.45-1.71,0-.45-.3-.85-.3-1.3,0-.89,1-1.28,1.69-1.41a4.42,4.42,0,0,1,1.31,0,1.45,1.45,0,0,0,1.24-.57,1.22,1.22,0,0,0,.27-.5,1,1,0,0,0-.26-.88,1.87,1.87,0,0,0-.83-.48,1.51,1.51,0,0,1-.48-.22,20.34,20.34,0,0,1,2-1.12l.74-.34a5.56,5.56,0,0,0-.08,1.86,11.5,11.5,0,0,0,.4,1.12,3.15,3.15,0,0,1-.07,2.12c-.8,2-2.44,3.37-1.37,5.49a4.85,4.85,0,0,1,.88,2.17c0,.67-.46,1.27-.53,1.94-.11,1,.59,2,.21,2.94-.46,1.15-2.14,1.12-3.23.53s-2.05-1.54-3.28-1.66a8.76,8.76,0,0,0-2.64.48C64.16,57.69,64.05,57.7,64,57.72Zm28.72-3.16c-.44.64,1.32.71,2.32.35s.11-1.53-.85-1.73C93,53,93.11,53.92,92.67,54.56Zm5.45,3.2a2.23,2.23,0,0,0,2.66,2.34c1.71-.37-.69-4-2-4.91S98.25,56.65,98.12,57.76Z" transform="translate(0 0)"/><path class="cls-18" d="M478.41,49.72A11.17,11.17,0,1,1,463.33,45,11.18,11.18,0,0,1,478.41,49.72Z" transform="translate(0 0)"/><path class="cls-19" d="M470.85,59.37a40.23,40.23,0,0,0,8.72-6,11,11,0,0,0-1.16-3.61c-.16-.3-.33-.58-.5-.86a23.55,23.55,0,0,1-5.37,4.71,33.27,33.27,0,0,1-8,4.1,23,23,0,0,1-6.39,1.51,9.08,9.08,0,0,0,.42.9,10.94,10.94,0,0,0,2.3,3A40.21,40.21,0,0,0,470.85,59.37Z" transform="translate(0 0)"/><path class="cls-20" d="M468.64,65.29a10.32,10.32,0,1,0-5-19.46l-.11.07c.62.07.75.64-.23,1.88-1.45,1.83-.3,3,1.12,2.64a22.93,22.93,0,0,1,5.95-.61c2,.19,1.53,1.23.39,2.24-1.38,1.24-5,3-4.44,3.94s4.31.49,4.05,1.7-3.27,3.86-4.78,2.86-3.64.74-2,1.78,5.3.72,5,2.1A1.75,1.75,0,0,0,468.64,65.29Z" transform="translate(0 0)"/><path class="cls-21" d="M467.3,56.56c1.29.33,3.25.24,3.06,1.13-.26,1.21-3.27,3.86-4.78,2.86s-3.64.74-2,1.78l.07,0a42.52,42.52,0,0,0,7.22-3,40.92,40.92,0,0,0,7.85-5.26,10.15,10.15,0,0,0-1.14-3.91c-.1-.2-.21-.38-.32-.56a25.74,25.74,0,0,1-4.7,3.93A32.76,32.76,0,0,1,467.3,56.56Z" transform="translate(0 0)"/><path class="cls-20" d="M460.68,57c1.66.78,2.54-1.81,2-2.69s-1.5-1.74-1.6-3-1.94.08-2.13,1.11C458.66,53.91,459,56.25,460.68,57Z" transform="translate(0 0)"/><path class="cls-22" d="M475.86,45.81c.2.16.39.33.58.5,1.67-.27,2.81-.13,3.13.49.67,1.28-2.3,4.21-7,7.13a47.5,47.5,0,0,1-7.71,4c-4.83,2-8.68,2.69-9.33,1.46-.32-.62.22-1.64,1.39-2.85,0-.26-.06-.51-.08-.76-3.35,2.74-5.14,5.23-4.42,6.6,1.22,2.33,9.23.55,17.9-4S485,48.28,483.8,45.94C483.09,44.57,480,44.62,475.86,45.81Z" transform="translate(0 0)"/><path class="cls-23" d="M449.65,214.2a6.94,6.94,0,0,1-3.41,2.51,9.35,9.35,0,0,0,1.45-2.79,10.75,10.75,0,0,1-3,2.7A7.43,7.43,0,0,1,441,218a7.5,7.5,0,0,1-.3-3.83,6.94,6.94,0,0,1,1.44-3.77,7.07,7.07,0,0,0-2.08,2.41,7.33,7.33,0,0,1,.89-4.34c2.16-3.39,3.86-1.94,6.51-.25S452,210.74,449.65,214.2Z" transform="translate(0 0)"/><path class="cls-11" d="M449.87,195.64s-8.83-.76-13.64,6.76c0,0-.11,1.1,1.18.53s3.62-2.93,7.83-.23Z" transform="translate(0 0)"/><path class="cls-11" d="M457.68,200.62s4.39,7.7-.42,15.23c0,0-.94.56-1-.86s1.14-4.51-3.08-7.2Z" transform="translate(0 0)"/><path class="cls-8" d="M468.63,188.2l-6-3.86-6-3.86a34.63,34.63,0,0,0-6.74,7.68c-4.07,6.38-5,10.81-5,15.31l3.95,2.53,4,2.53c4.08-1.9,7.71-4.61,11.79-11A34.42,34.42,0,0,0,468.63,188.2ZM455.76,195a4.81,4.81,0,1,1,6.64-1.47A4.81,4.81,0,0,1,455.76,195Z" transform="translate(0 0)"/><path class="cls-24" d="M452.63,208.5,448.74,206l-3.9-2.49a.23.23,0,0,0-.31.07l-.55.86a.21.21,0,0,0,.07.3l3.9,2.5,3.9,2.49a.22.22,0,0,0,.3-.07l.55-.86A.22.22,0,0,0,452.63,208.5Z" transform="translate(0 0)"/><path class="cls-3" d="M460.94,186.91a4.81,4.81,0,1,0,1.46,6.64A4.81,4.81,0,0,0,460.94,186.91Zm-4.36,6.83a3.29,3.29,0,1,1,4.55-1A3.29,3.29,0,0,1,456.58,193.74Z" transform="translate(0 0)"/><path class="cls-13" d="M460.13,188.19a3.29,3.29,0,1,0,1,4.55A3.3,3.3,0,0,0,460.13,188.19Z" transform="translate(0 0)"/><path class="cls-11" d="M467.62,176.47c-1.32-.85-5.74-.55-11.08,4l6,3.86,6,3.86C470.52,181.44,468.94,177.31,467.62,176.47Z" transform="translate(0 0)"/><path class="cls-11" d="M452.71,200.35l0,0h0l-.19-.12-.2-.13h0l-.07,0-.15,0a1,1,0,0,0-1.18.48l-4.19,7.84-.23.38-.18.29a.24.24,0,0,0,0,.27.39.39,0,0,0,.08.1h0l.18.12.21.13h0a.24.24,0,0,0,.34-.08l.18-.28.27-.4,5.35-7.09A1,1,0,0,0,452.71,200.35Z" transform="translate(0 0)"/><path class="cls-25" d="M0,247c54,4,118,34.8,201,34.8,76.75,0,84.92-21.35,155.14-37.17,83.6-18.83,117.58,11.07,210.91-38v99.49H0Z" transform="translate(0 0)"/><path class="cls-26" d="M516,268.5c37.51,41.49,23.5,3.14-4.5-23.22a131.62,131.62,0,0,1-12.15-13A209.86,209.86,0,0,1,476,235.83,179.19,179.19,0,0,1,516,268.5Z" transform="translate(0 0)"/><path class="cls-27" d="M330.8,251.25c10.47,29-28.76,52.94-148.8,33.69-48.88-7.84-86.43,4.33-110.11,21.21H529.46c-23.91-29.84-71-51.75-118-68.52a293,293,0,0,0-55.32,7C346.67,246.75,338.33,249,330.8,251.25Z" transform="translate(0 0)"/><path class="cls-28" d="M0,294.49c63.83-16.66,122.87,6.28,205.9,6.28,76.75,0,99.62-12.65,169.84-12.65,68.19,0,106.14,21.35,191.31-1.56v53.6H0Z" transform="translate(0 0)"/><path class="cls-29" d="M519.79,295.65c-54.81,5.93-89.9-7.53-144-7.53-70.22,0-93.09,12.65-169.84,12.65-40.1,0-74.6-5.35-106.75-9-31.1,11.74-50.18,32.38-55,48.39H545.26A64.84,64.84,0,0,0,542,328.07C537.79,316.25,530.05,305.48,519.79,295.65Z" transform="translate(0 0)"/><path class="cls-30" d="M0,317.38c72,11.86,100-9.49,183-9.49,76.75,0,133.91,15.82,215.56,15.82,68.19,0,99.61-17.4,168.45-10.29v26.74H0Z" transform="translate(0 0)"/><path class="cls-31" d="M533.59,311.73c-47.65.21-78.88,12-135,12-81.65,0-138.81-15.82-215.56-15.82-58,0-89.17,10.42-127.24,12.66-5.87,6.71-9.78,13.5-11.61,19.61H545.26A64.84,64.84,0,0,0,542,328.07,72.14,72.14,0,0,0,533.59,311.73Z" transform="translate(0 0)"/><path class="cls-32" d="M106.19,92.61A2.19,2.19,0,1,1,104,90.42,2.2,2.2,0,0,1,106.19,92.61Z" transform="translate(0 0)"/><path class="cls-32" d="M47.19,171.61A2.19,2.19,0,1,1,45,169.42,2.19,2.19,0,0,1,47.19,171.61Z" transform="translate(0 0)"/><path class="cls-32" d="M538.19,45.11A2.19,2.19,0,1,1,536,42.92,2.19,2.19,0,0,1,538.19,45.11Z" transform="translate(0 0)"/><path class="cls-32" d="M360.19,11.61A2.19,2.19,0,1,1,358,9.42,2.2,2.2,0,0,1,360.19,11.61Z" transform="translate(0 0)"/><path class="cls-32" d="M298,95.66a2.19,2.19,0,1,1-2.19-2.19A2.19,2.19,0,0,1,298,95.66Z" transform="translate(0 0)"/><path class="cls-32" d="M513.06,117.21a2.19,2.19,0,1,1-2.19-2.19A2.2,2.2,0,0,1,513.06,117.21Z" transform="translate(0 0)"/><path class="cls-32" d="M209.64,18.36a1.23,1.23,0,1,1-1.23-1.23A1.23,1.23,0,0,1,209.64,18.36Z" transform="translate(0 0)"/><path class="cls-32" d="M316.39,150.57a1.23,1.23,0,1,1-1.23-1.23A1.23,1.23,0,0,1,316.39,150.57Z" transform="translate(0 0)"/><path class="cls-32" d="M299,171.1a1.24,1.24,0,1,1-1.24-1.23A1.24,1.24,0,0,1,299,171.1Z" transform="translate(0 0)"/><path class="cls-32" d="M421.48,220.87a1.23,1.23,0,1,1-1.23-1.24A1.23,1.23,0,0,1,421.48,220.87Z" transform="translate(0 0)"/><path class="cls-32" d="M335.33,280.61a1.23,1.23,0,1,1-1.23-1.23A1.23,1.23,0,0,1,335.33,280.61Z" transform="translate(0 0)"/><path class="cls-32" d="M523.22,310a1.24,1.24,0,1,1-1.23-1.23A1.23,1.23,0,0,1,523.22,310Z" transform="translate(0 0)"/><path class="cls-32" d="M490.9,104a1.24,1.24,0,1,1-1.23-1.23A1.23,1.23,0,0,1,490.9,104Z" transform="translate(0 0)"/><path class="cls-32" d="M230.69,107a1.24,1.24,0,1,1-1.24-1.23A1.24,1.24,0,0,1,230.69,107Z" transform="translate(0 0)"/><path class="cls-32" d="M231.58,145.19a.85.85,0,1,1-.84-.85A.85.85,0,0,1,231.58,145.19Z" transform="translate(0 0)"/><path class="cls-32" d="M159.44,99.25a.84.84,0,0,1-.84.85.85.85,0,0,1,0-1.7A.84.84,0,0,1,159.44,99.25Z" transform="translate(0 0)"/><path class="cls-32" d="M154.83,131.07a.85.85,0,1,1-.85-.85A.85.85,0,0,1,154.83,131.07Z" transform="translate(0 0)"/><path class="cls-32" d="M185.62,125.94a.85.85,0,1,1-.85-.85A.85.85,0,0,1,185.62,125.94Z" transform="translate(0 0)"/><circle class="cls-32" cx="185.83" cy="164.91" r="0.85"/><path class="cls-32" d="M217,151.05a.85.85,0,1,1-.85-.84A.85.85,0,0,1,217,151.05Z" transform="translate(0 0)"/><path class="cls-32" d="M175.76,144a1.27,1.27,0,1,1-1.27-1.27A1.27,1.27,0,0,1,175.76,144Z" transform="translate(0 0)"/><path class="cls-32" d="M197.27,147.34a1.27,1.27,0,1,1-1.27-1.27A1.27,1.27,0,0,1,197.27,147.34Z" transform="translate(0 0)"/><path class="cls-32" d="M203.27,161.34a1.27,1.27,0,1,1-1.27-1.27A1.27,1.27,0,0,1,203.27,161.34Z" transform="translate(0 0)"/><path class="cls-32" d="M251,156.11a1.27,1.27,0,1,1-1.27-1.27A1.27,1.27,0,0,1,251,156.11Z" transform="translate(0 0)"/><path class="cls-32" d="M117.76,109.72a1.27,1.27,0,1,1-1.27-1.27A1.27,1.27,0,0,1,117.76,109.72Z" transform="translate(0 0)"/><path class="cls-32" d="M145.27,127.11a1.27,1.27,0,1,1-1.27-1.27A1.27,1.27,0,0,1,145.27,127.11Z" transform="translate(0 0)"/><path class="cls-32" d="M184.91,107.61a1.91,1.91,0,1,1-1.91-1.9A1.91,1.91,0,0,1,184.91,107.61Z" transform="translate(0 0)"/><path class="cls-32" d="M219,170.22a1.27,1.27,0,1,1-1.27-1.27A1.27,1.27,0,0,1,219,170.22Z" transform="translate(0 0)"/><path class="cls-32" d="M246.5,187.61a1.27,1.27,0,1,1-1.27-1.26A1.27,1.27,0,0,1,246.5,187.61Z" transform="translate(0 0)"/><path class="cls-32" d="M294.23,182.39a1.27,1.27,0,1,1-1.27-1.27A1.27,1.27,0,0,1,294.23,182.39Z" transform="translate(0 0)"/><path class="cls-32" d="M239.26,200.45a1.27,1.27,0,1,1-1.27-1.28A1.27,1.27,0,0,1,239.26,200.45Z" transform="translate(0 0)"/><path class="cls-32" d="M266.77,217.84a1.27,1.27,0,1,1-1.27-1.27A1.27,1.27,0,0,1,266.77,217.84Z" transform="translate(0 0)"/><path class="cls-32" d="M314.5,212.61a1.27,1.27,0,1,1-1.27-1.27A1.27,1.27,0,0,1,314.5,212.61Z" transform="translate(0 0)"/><path class="cls-32" d="M465.94,258.67a1.27,1.27,0,1,1-1.27-1.27A1.27,1.27,0,0,1,465.94,258.67Z" transform="translate(0 0)"/><path class="cls-32" d="M416.61,309.34a1.27,1.27,0,1,1-1.28-1.27A1.27,1.27,0,0,1,416.61,309.34Z" transform="translate(0 0)"/><path class="cls-32" d="M340.26,209a1.27,1.27,0,1,1-1.27-1.28A1.27,1.27,0,0,1,340.26,209Z" transform="translate(0 0)"/><path class="cls-32" d="M367.77,226.34a1.27,1.27,0,1,1-1.27-1.27A1.27,1.27,0,0,1,367.77,226.34Z" transform="translate(0 0)"/><path class="cls-32" d="M387.94,252.61a1.27,1.27,0,1,1-1.27-1.27A1.27,1.27,0,0,1,387.94,252.61Z" transform="translate(0 0)"/><path class="cls-32" d="M363.94,256.28a1.27,1.27,0,1,1-1.27-1.27A1.27,1.27,0,0,1,363.94,256.28Z" transform="translate(0 0)"/><path class="cls-32" d="M398.27,300.92a1.27,1.27,0,1,1-1.27-1.27A1.27,1.27,0,0,1,398.27,300.92Z" transform="translate(0 0)"/><path class="cls-32" d="M446,265.11a1.27,1.27,0,1,1-1.27-1.27A1.27,1.27,0,0,1,446,265.11Z" transform="translate(0 0)"/><path class="cls-32" d="M312.76,226.45a1.27,1.27,0,1,1-1.27-1.28A1.27,1.27,0,0,1,312.76,226.45Z" transform="translate(0 0)"/><path class="cls-32" d="M260.61,290.67a1.27,1.27,0,1,1-1.27-1.27A1.27,1.27,0,0,1,260.61,290.67Z" transform="translate(0 0)"/><path class="cls-32" d="M340.27,243.84a1.27,1.27,0,1,1-1.27-1.27A1.27,1.27,0,0,1,340.27,243.84Z" transform="translate(0 0)"/><path class="cls-32" d="M88.27,317.7A1.27,1.27,0,1,1,87,316.43,1.27,1.27,0,0,1,88.27,317.7Z" transform="translate(0 0)"/><path class="cls-32" d="M63.77,331.92a1.27,1.27,0,1,1-1.27-1.27A1.27,1.27,0,0,1,63.77,331.92Z" transform="translate(0 0)"/><path class="cls-32" d="M135.26,90.45A1.27,1.27,0,1,1,134,89.18,1.27,1.27,0,0,1,135.26,90.45Z" transform="translate(0 0)"/><path class="cls-32" d="M162.77,107.84a1.27,1.27,0,1,1-1.27-1.27A1.27,1.27,0,0,1,162.77,107.84Z" transform="translate(0 0)"/><path class="cls-32" d="M210.5,102.61a1.27,1.27,0,1,1-1.27-1.27A1.27,1.27,0,0,1,210.5,102.61Z" transform="translate(0 0)"/><path class="cls-32" d="M212.76,67a1.27,1.27,0,1,1-1.27-1.27A1.27,1.27,0,0,1,212.76,67Z" transform="translate(0 0)"/><path class="cls-32" d="M240.27,84.34A1.27,1.27,0,1,1,239,83.07,1.27,1.27,0,0,1,240.27,84.34Z" transform="translate(0 0)"/><path class="cls-32" d="M288,79.11a1.27,1.27,0,1,1-1.27-1.27A1.27,1.27,0,0,1,288,79.11Z" transform="translate(0 0)"/><path class="cls-32" d="M368,103.61a1.27,1.27,0,1,1-1.27-1.27A1.27,1.27,0,0,1,368,103.61Z" transform="translate(0 0)"/><path class="cls-32" d="M80.54,58.61a1.27,1.27,0,1,1-1.27-1.27A1.27,1.27,0,0,1,80.54,58.61Z" transform="translate(0 0)"/><path class="cls-32" d="M147.6,74a1.27,1.27,0,1,1-1.27-1.27A1.27,1.27,0,0,1,147.6,74Z" transform="translate(0 0)"/><path class="cls-32" d="M147.27,29.21A1.27,1.27,0,1,1,146,28,1.27,1.27,0,0,1,147.27,29.21Z" transform="translate(0 0)"/><path class="cls-32" d="M194.5,63.11a1.27,1.27,0,1,1-1.27-1.27A1.27,1.27,0,0,1,194.5,63.11Z" transform="translate(0 0)"/><path class="cls-32" d="M186.61,41.22A1.27,1.27,0,1,1,185.34,40,1.27,1.27,0,0,1,186.61,41.22Z" transform="translate(0 0)"/><path class="cls-32" d="M233.34,38.61a1.28,1.28,0,1,1-1.28-1.27A1.27,1.27,0,0,1,233.34,38.61Z" transform="translate(0 0)"/><path class="cls-32" d="M249.26,51A1.27,1.27,0,1,1,248,49.68,1.27,1.27,0,0,1,249.26,51Z" transform="translate(0 0)"/><path class="cls-32" d="M276.77,68.34a1.27,1.27,0,1,1-1.27-1.27A1.27,1.27,0,0,1,276.77,68.34Z" transform="translate(0 0)"/><path class="cls-32" d="M324.5,63.11a1.27,1.27,0,1,1-1.27-1.27A1.27,1.27,0,0,1,324.5,63.11Z" transform="translate(0 0)"/><path class="cls-32" d="M341.27,101.84a1.27,1.27,0,1,1-1.27-1.27A1.27,1.27,0,0,1,341.27,101.84Z" transform="translate(0 0)"/><path class="cls-32" d="M330,91.07a1.27,1.27,0,1,1-1.27-1.27A1.27,1.27,0,0,1,330,91.07Z" transform="translate(0 0)"/><path class="cls-32" d="M377.77,85.84a1.27,1.27,0,1,1-1.27-1.27A1.27,1.27,0,0,1,377.77,85.84Z" transform="translate(0 0)"/><path class="cls-32" d="M418.94,109.88a1.27,1.27,0,1,1-1.27-1.27A1.27,1.27,0,0,1,418.94,109.88Z" transform="translate(0 0)"/><path class="cls-32" d="M403,113.11a1.27,1.27,0,1,1-1.27-1.27A1.27,1.27,0,0,1,403,113.11Z" transform="translate(0 0)"/><path class="cls-32" d="M474.6,100a1.27,1.27,0,1,1-1.27-1.27A1.27,1.27,0,0,1,474.6,100Z" transform="translate(0 0)"/><path class="cls-32" d="M482.61,29.22a1.27,1.27,0,1,1-2.54,0,1.27,1.27,0,1,1,2.54,0Z" transform="translate(0 0)"/><path class="cls-32" d="M443.21,18.61a1.27,1.27,0,1,1-1.27-1.27A1.27,1.27,0,0,1,443.21,18.61Z" transform="translate(0 0)"/><path class="cls-32" d="M244.67,146.44a.85.85,0,1,1-.85-.85A.85.85,0,0,1,244.67,146.44Z" transform="translate(0 0)"/><path class="cls-32" d="M180.85,80.27a.85.85,0,0,1-1.7,0,.85.85,0,0,1,1.7,0Z" transform="translate(0 0)"/><path class="cls-32" d="M166.22,86.14a.85.85,0,1,1-.84-.85A.85.85,0,0,1,166.22,86.14Z" transform="translate(0 0)"/><path class="cls-32" d="M193.94,81.52a.85.85,0,0,1-1.7,0,.85.85,0,0,1,1.7,0Z" transform="translate(0 0)"/><path class="cls-32" d="M245.85,66.77a.85.85,0,0,1-1.7,0,.85.85,0,0,1,1.7,0Z" transform="translate(0 0)"/><path class="cls-32" d="M231.22,72.64a.85.85,0,1,1-.84-.85A.85.85,0,0,1,231.22,72.64Z" transform="translate(0 0)"/><path class="cls-32" d="M258.94,68a.85.85,0,0,1-1.7,0,.85.85,0,1,1,1.7,0Z" transform="translate(0 0)"/><path class="cls-32" d="M477.85,86.27a.85.85,0,0,1-1.7,0,.85.85,0,0,1,1.7,0Z" transform="translate(0 0)"/><path class="cls-32" d="M463.22,92.14a.85.85,0,1,1-.84-.85A.85.85,0,0,1,463.22,92.14Z" transform="translate(0 0)"/><path class="cls-32" d="M490.94,87.52a.85.85,0,0,1-1.7,0,.85.85,0,0,1,1.7,0Z" transform="translate(0 0)"/><path class="cls-32" d="M262.85,85.77a.85.85,0,0,1-1.7,0,.85.85,0,1,1,1.7,0Z" transform="translate(0 0)"/><path class="cls-32" d="M248.22,91.64a.85.85,0,1,1-.84-.85A.85.85,0,0,1,248.22,91.64Z" transform="translate(0 0)"/><path class="cls-32" d="M275.94,87a.85.85,0,0,1-1.7,0,.85.85,0,1,1,1.7,0Z" transform="translate(0 0)"/><path class="cls-32" d="M236,125.11a.85.85,0,0,1-.85.85.85.85,0,1,1,.85-.85Z" transform="translate(0 0)"/><path class="cls-32" d="M221.38,131a.85.85,0,1,1-.85-.84A.85.85,0,0,1,221.38,131Z" transform="translate(0 0)"/><path class="cls-32" d="M249.09,126.36a.85.85,0,1,1-.85-.84A.85.85,0,0,1,249.09,126.36Z" transform="translate(0 0)"/><path class="cls-32" d="M284.85,190.77a.85.85,0,1,1-.85-.85A.85.85,0,0,1,284.85,190.77Z" transform="translate(0 0)"/><path class="cls-32" d="M270.22,196.64a.85.85,0,1,1-.84-.85A.85.85,0,0,1,270.22,196.64Z" transform="translate(0 0)"/><path class="cls-32" d="M297.94,192a.85.85,0,1,1-.85-.85A.85.85,0,0,1,297.94,192Z" transform="translate(0 0)"/><path class="cls-32" d="M284.35,154.27a.85.85,0,0,1-1.7,0,.85.85,0,1,1,1.7,0Z" transform="translate(0 0)"/><path class="cls-32" d="M269.72,160.14a.85.85,0,1,1-.84-.85A.85.85,0,0,1,269.72,160.14Z" transform="translate(0 0)"/><path class="cls-32" d="M297.44,155.52a.85.85,0,0,1-1.7,0,.85.85,0,0,1,1.7,0Z" transform="translate(0 0)"/><path class="cls-32" d="M338.85,187.27a.85.85,0,1,1-.85-.85A.85.85,0,0,1,338.85,187.27Z" transform="translate(0 0)"/><path class="cls-32" d="M324.22,193.14a.85.85,0,1,1-.84-.85A.85.85,0,0,1,324.22,193.14Z" transform="translate(0 0)"/><path class="cls-32" d="M351.94,188.52a.85.85,0,1,1-.85-.85A.85.85,0,0,1,351.94,188.52Z" transform="translate(0 0)"/><path class="cls-32" d="M369.35,308.85a.85.85,0,1,1-.85-.85A.85.85,0,0,1,369.35,308.85Z" transform="translate(0 0)"/><path class="cls-32" d="M354.72,314.72a.85.85,0,0,1-1.69,0,.85.85,0,1,1,1.69,0Z" transform="translate(0 0)"/><path class="cls-32" d="M382.44,310.1a.85.85,0,1,1-.85-.85A.85.85,0,0,1,382.44,310.1Z" transform="translate(0 0)"/><path class="cls-32" d="M279.35,307.85a.85.85,0,1,1-.85-.85A.85.85,0,0,1,279.35,307.85Z" transform="translate(0 0)"/><path class="cls-32" d="M264.72,313.72a.85.85,0,0,1-1.69,0,.85.85,0,1,1,1.69,0Z" transform="translate(0 0)"/><path class="cls-32" d="M292.44,309.1a.85.85,0,1,1-.85-.85A.85.85,0,0,1,292.44,309.1Z" transform="translate(0 0)"/><path class="cls-32" d="M383.19,194.61a.84.84,0,0,1-.84.85.85.85,0,1,1,0-1.69A.84.84,0,0,1,383.19,194.61Z" transform="translate(0 0)"/><path class="cls-32" d="M368.57,200.48a.85.85,0,0,1-.85.85.85.85,0,1,1,.85-.85Z" transform="translate(0 0)"/><path class="cls-32" d="M396.28,195.86a.85.85,0,1,1-.84-.84A.85.85,0,0,1,396.28,195.86Z" transform="translate(0 0)"/><path class="cls-32" d="M273.92,142.91a.85.85,0,0,1-1.69,0,.85.85,0,1,1,1.69,0Z" transform="translate(0 0)"/><path class="cls-32" d="M350.36,168a.85.85,0,1,1-1.69,0,.85.85,0,0,1,1.69,0Z" transform="translate(0 0)"/><path class="cls-32" d="M223.12,189.55a.85.85,0,1,1-.85-.85A.85.85,0,0,1,223.12,189.55Z" transform="translate(0 0)"/><path class="cls-32" d="M303.18,204.94a.85.85,0,1,1-.85-.85A.85.85,0,0,1,303.18,204.94Z" transform="translate(0 0)"/><path class="cls-32" d="M286.24,227.52a.85.85,0,1,1-.85-.85A.85.85,0,0,1,286.24,227.52Z" transform="translate(0 0)"/><path class="cls-32" d="M345.77,218.29a.84.84,0,0,1-.84.84.85.85,0,1,1,.84-.84Z" transform="translate(0 0)"/><path class="cls-32" d="M131.25,18.07a.85.85,0,0,1-.85.85.84.84,0,0,1-.84-.85.83.83,0,0,1,.84-.84A.84.84,0,0,1,131.25,18.07Z" transform="translate(0 0)"/><path class="cls-32" d="M335,51.52a.85.85,0,1,1-1.7,0,.85.85,0,0,1,1.7,0Z" transform="translate(0 0)"/><path class="cls-32" d="M477.67,59.61a.85.85,0,1,1-.85-.84A.85.85,0,0,1,477.67,59.61Z" transform="translate(0 0)"/><path class="cls-32" d="M501,69.61a.85.85,0,1,1-.85-.84A.85.85,0,0,1,501,69.61Z" transform="translate(0 0)"/><path class="cls-32" d="M172,39a.85.85,0,0,1-1.7,0,.85.85,0,0,1,1.7,0Z" transform="translate(0 0)"/><path class="cls-32" d="M293.85,14.82A.85.85,0,1,1,293,14,.85.85,0,0,1,293.85,14.82Z" transform="translate(0 0)"/><path class="cls-32" d="M385.85,12a.85.85,0,1,1-.85-.85A.85.85,0,0,1,385.85,12Z" transform="translate(0 0)"/><path class="cls-32" d="M553.19,230.61a.85.85,0,1,1-.84-.84A.85.85,0,0,1,553.19,230.61Z" transform="translate(0 0)"/><path class="cls-32" d="M497.69,249.61a.85.85,0,1,1-.84-.84A.85.85,0,0,1,497.69,249.61Z" transform="translate(0 0)"/><path class="cls-32" d="M518.35,231.77a.85.85,0,1,1-.85-.85A.85.85,0,0,1,518.35,231.77Z" transform="translate(0 0)"/><path class="cls-32" d="M86.35,328.85a.85.85,0,1,1-.85-.85A.85.85,0,0,1,86.35,328.85Z" transform="translate(0 0)"/><path class="cls-32" d="M86.35,300.85a.85.85,0,1,1-.85-.85A.85.85,0,0,1,86.35,300.85Z" transform="translate(0 0)"/><path class="cls-32" d="M454.09,44.34a.84.84,0,0,1-.84.84.85.85,0,1,1,.84-.84Z" transform="translate(0 0)"/><path class="cls-32" d="M521.29,17.56a.84.84,0,0,1-.84.85.85.85,0,1,1,0-1.7A.84.84,0,0,1,521.29,17.56Z" transform="translate(0 0)"/><path class="cls-32" d="M543.88,97.68a.85.85,0,1,1-.85-.85A.85.85,0,0,1,543.88,97.68Z" transform="translate(0 0)"/><path class="cls-32" d="M388.88,111.54a.84.84,0,0,1-.84.84.85.85,0,1,1,.84-.84Z" transform="translate(0 0)"/><path class="cls-32" d="M207.72,91.52a.85.85,0,1,1-.85-.85A.85.85,0,0,1,207.72,91.52Z" transform="translate(0 0)"/><path class="cls-32" d="M147.67,58.68a.85.85,0,1,1-.84-.85A.85.85,0,0,1,147.67,58.68Z" transform="translate(0 0)"/><path class="cls-32" d="M98.85,35.77a.85.85,0,1,1-.85-.85A.85.85,0,0,1,98.85,35.77Z" transform="translate(0 0)"/><path class="cls-32" d="M109.34,29.28a.85.85,0,1,1-.85-.85A.85.85,0,0,1,109.34,29.28Z" transform="translate(0 0)"/><path class="cls-32" d="M93.51,66a.85.85,0,0,1-1.69,0,.85.85,0,1,1,1.69,0Z" transform="translate(0 0)"/><path class="cls-32" d="M174.83,98.3a.5.5,0,1,1-.5-.5A.49.49,0,0,1,174.83,98.3Z" transform="translate(0 0)"/><path class="cls-32" d="M181.5,72.55a.5.5,0,1,1-.5-.49A.5.5,0,0,1,181.5,72.55Z" transform="translate(0 0)"/><path class="cls-32" d="M218.67,83.11a.5.5,0,0,1-.5.5.5.5,0,1,1,0-1A.49.49,0,0,1,218.67,83.11Z" transform="translate(0 0)"/><path class="cls-32" d="M220.83,102.12a.5.5,0,1,1-.5-.5A.49.49,0,0,1,220.83,102.12Z" transform="translate(0 0)"/><path class="cls-32" d="M217.83,117.45a.5.5,0,1,1-.5-.5A.5.5,0,0,1,217.83,117.45Z" transform="translate(0 0)"/><path class="cls-32" d="M186.67,98.11a.5.5,0,0,1-.5.5.5.5,0,1,1,0-1A.49.49,0,0,1,186.67,98.11Z" transform="translate(0 0)"/><path class="cls-32" d="M123.49,126.47a.5.5,0,1,1-.49-.5A.49.49,0,0,1,123.49,126.47Z" transform="translate(0 0)"/><path class="cls-32" d="M130.16,100.72a.5.5,0,1,1-1,0,.5.5,0,1,1,1,0Z" transform="translate(0 0)"/><path class="cls-32" d="M167.33,111.28a.5.5,0,1,1-.5-.5A.5.5,0,0,1,167.33,111.28Z" transform="translate(0 0)"/><path class="cls-32" d="M135.33,126.28a.5.5,0,1,1-.5-.5A.5.5,0,0,1,135.33,126.28Z" transform="translate(0 0)"/><path class="cls-32" d="M178.49,51.63a.5.5,0,1,1-.49-.5A.49.49,0,0,1,178.49,51.63Z" transform="translate(0 0)"/><path class="cls-32" d="M185.16,25.88a.5.5,0,1,1-.5-.49A.5.5,0,0,1,185.16,25.88Z" transform="translate(0 0)"/><path class="cls-32" d="M222.33,36.44a.5.5,0,1,1-.5-.49A.5.5,0,0,1,222.33,36.44Z" transform="translate(0 0)"/><path class="cls-32" d="M190.33,51.44a.5.5,0,1,1-.5-.49A.5.5,0,0,1,190.33,51.44Z" transform="translate(0 0)"/><path class="cls-32" d="M300.66,78.13a.5.5,0,1,1-.49-.49A.49.49,0,0,1,300.66,78.13Z" transform="translate(0 0)"/><path class="cls-32" d="M307.33,52.39a.5.5,0,1,1-.5-.5A.49.49,0,0,1,307.33,52.39Z" transform="translate(0 0)"/><path class="cls-32" d="M344.5,63a.5.5,0,1,1-.5-.5A.49.49,0,0,1,344.5,63Z" transform="translate(0 0)"/><path class="cls-32" d="M312.5,78a.5.5,0,1,1-.5-.5A.49.49,0,0,1,312.5,78Z" transform="translate(0 0)"/><path class="cls-32" d="M257.16,147.13a.5.5,0,1,1-.5-.49A.5.5,0,0,1,257.16,147.13Z" transform="translate(0 0)"/><path class="cls-32" d="M263.83,121.39a.5.5,0,0,1-.5.49.5.5,0,1,1,0-1A.5.5,0,0,1,263.83,121.39Z" transform="translate(0 0)"/><path class="cls-32" d="M301,132a.5.5,0,0,1-.5.49.5.5,0,1,1,0-1A.5.5,0,0,1,301,132Z" transform="translate(0 0)"/><path class="cls-32" d="M269,147a.5.5,0,0,1-.5.49.5.5,0,1,1,0-1A.5.5,0,0,1,269,147Z" transform="translate(0 0)"/><path class="cls-32" d="M435.16,307.8a.5.5,0,1,1-.5-.5A.5.5,0,0,1,435.16,307.8Z" transform="translate(0 0)"/><path class="cls-32" d="M441.83,282.05a.5.5,0,0,1-.5.5.5.5,0,1,1,.5-.5Z" transform="translate(0 0)"/><path class="cls-32" d="M479,292.62a.5.5,0,0,1-.5.49.5.5,0,1,1,0-1A.5.5,0,0,1,479,292.62Z" transform="translate(0 0)"/><path class="cls-32" d="M447,307.62a.5.5,0,0,1-.5.49.5.5,0,1,1,0-1A.5.5,0,0,1,447,307.62Z" transform="translate(0 0)"/><path class="cls-32" d="M319.66,290.8a.5.5,0,0,1-1,0,.5.5,0,0,1,1,0Z" transform="translate(0 0)"/><path class="cls-32" d="M326.32,265.05a.5.5,0,1,1-1,0,.5.5,0,1,1,1,0Z" transform="translate(0 0)"/><path class="cls-32" d="M363.49,275.61a.5.5,0,1,1-.49-.49A.49.49,0,0,1,363.49,275.61Z" transform="translate(0 0)"/><path class="cls-32" d="M331.49,290.61a.5.5,0,1,1-.49-.49A.49.49,0,0,1,331.49,290.61Z" transform="translate(0 0)"/><path class="cls-32" d="M222.66,300.8a.5.5,0,0,1-1,0,.5.5,0,0,1,1,0Z" transform="translate(0 0)"/><path class="cls-32" d="M229.32,275.05a.5.5,0,1,1-1,0,.5.5,0,1,1,1,0Z" transform="translate(0 0)"/><path class="cls-32" d="M266.49,285.61a.5.5,0,1,1-.49-.49A.49.49,0,0,1,266.49,285.61Z" transform="translate(0 0)"/><path class="cls-32" d="M234.49,300.61a.5.5,0,1,1-.49-.49A.49.49,0,0,1,234.49,300.61Z" transform="translate(0 0)"/><path class="cls-32" d="M147.66,295.3a.5.5,0,1,1-.5-.5A.5.5,0,0,1,147.66,295.3Z" transform="translate(0 0)"/><circle class="cls-32" cx="153.83" cy="269.55" r="0.5"/><path class="cls-32" d="M191.5,280.12a.5.5,0,0,1-.5.49.5.5,0,1,1,0-1A.5.5,0,0,1,191.5,280.12Z" transform="translate(0 0)"/><path class="cls-32" d="M159.5,295.12a.5.5,0,0,1-.5.49.5.5,0,1,1,0-1A.5.5,0,0,1,159.5,295.12Z" transform="translate(0 0)"/><path class="cls-32" d="M391.66,97.3a.5.5,0,1,1-.5-.49A.5.5,0,0,1,391.66,97.3Z" transform="translate(0 0)"/><path class="cls-32" d="M398.33,71.56a.5.5,0,0,1-.5.49.5.5,0,1,1,0-1A.5.5,0,0,1,398.33,71.56Z" transform="translate(0 0)"/><path class="cls-32" d="M435.5,82.12a.5.5,0,0,1-.5.49.5.5,0,1,1,0-1A.5.5,0,0,1,435.5,82.12Z" transform="translate(0 0)"/><path class="cls-32" d="M403.5,97.12a.5.5,0,0,1-.5.49.5.5,0,1,1,0-1A.5.5,0,0,1,403.5,97.12Z" transform="translate(0 0)"/><path class="cls-32" d="M488.66,44.3a.5.5,0,1,1-.5-.49A.5.5,0,0,1,488.66,44.3Z" transform="translate(0 0)"/><path class="cls-32" d="M495.33,18.56a.5.5,0,0,1-.5.49.5.5,0,1,1,0-1A.5.5,0,0,1,495.33,18.56Z" transform="translate(0 0)"/><path class="cls-32" d="M532.5,29.12a.5.5,0,0,1-.5.49.5.5,0,1,1,0-1A.5.5,0,0,1,532.5,29.12Z" transform="translate(0 0)"/><path class="cls-32" d="M500.5,44.12a.5.5,0,0,1-.5.49.5.5,0,1,1,0-1A.5.5,0,0,1,500.5,44.12Z" transform="translate(0 0)"/><path class="cls-32" d="M277.16,233.3a.5.5,0,1,1-.5-.5A.5.5,0,0,1,277.16,233.3Z" transform="translate(0 0)"/><circle class="cls-32" cx="283.33" cy="207.55" r="0.5"/><path class="cls-32" d="M321,218.12a.5.5,0,0,1-.5.49.5.5,0,1,1,0-1A.5.5,0,0,1,321,218.12Z" transform="translate(0 0)"/><path class="cls-32" d="M289,233.12a.5.5,0,0,1-.5.49.5.5,0,1,1,0-1A.5.5,0,0,1,289,233.12Z" transform="translate(0 0)"/><path class="cls-32" d="M137.51,47a.85.85,0,0,1-1.69,0,.85.85,0,1,1,1.69,0Z" transform="translate(0 0)"/><path class="cls-32" d="M76.34,10.89a.85.85,0,0,1-1.7,0,.85.85,0,1,1,1.7,0Z" transform="translate(0 0)"/><path class="cls-32" d="M168.2,173.12a.85.85,0,1,1-.85-.85A.85.85,0,0,1,168.2,173.12Z" transform="translate(0 0)"/><path class="cls-32" d="M144.11,169.56a.85.85,0,1,1-.84-.85A.85.85,0,0,1,144.11,169.56Z" transform="translate(0 0)"/><path class="cls-32" d="M281.59,59.22a.85.85,0,0,1-.85.85.85.85,0,0,1,0-1.7A.85.85,0,0,1,281.59,59.22Z" transform="translate(0 0)"/><path class="cls-32" d="M313.44,93.06a.85.85,0,1,1-.85-.85A.85.85,0,0,1,313.44,93.06Z" transform="translate(0 0)"/><path class="cls-32" d="M343.72,79.2a.85.85,0,1,1-.85-.84A.85.85,0,0,1,343.72,79.2Z" transform="translate(0 0)"/><path class="cls-32" d="M349.88,117.7a.85.85,0,0,1-.85.84.85.85,0,0,1,0-1.69A.85.85,0,0,1,349.88,117.7Z" transform="translate(0 0)"/><path class="cls-32" d="M270.88,97.71a.85.85,0,1,1-.85-.85A.85.85,0,0,1,270.88,97.71Z" transform="translate(0 0)"/><path class="cls-32" d="M169.71,15a.85.85,0,1,1-.85-.85A.85.85,0,0,1,169.71,15Z" transform="translate(0 0)"/><path class="cls-32" d="M201.56,71.51a.85.85,0,1,1-.85-.85A.85.85,0,0,1,201.56,71.51Z" transform="translate(0 0)"/><path class="cls-32" d="M231.84,57.65a.85.85,0,1,1-.85-.85A.85.85,0,0,1,231.84,57.65Z" transform="translate(0 0)"/><path class="cls-32" d="M212.36,39.28a.85.85,0,1,1-.85-.85A.85.85,0,0,1,212.36,39.28Z" transform="translate(0 0)"/><path class="cls-32" d="M167,30.61a.85.85,0,0,1-.85.85.85.85,0,0,1,0-1.7A.85.85,0,0,1,167,30.61Z" transform="translate(0 0)"/><path class="cls-32" d="M162.85,46.43a.85.85,0,0,1-.85.85.85.85,0,0,1,0-1.7A.85.85,0,0,1,162.85,46.43Z" transform="translate(0 0)"/><path class="cls-32" d="M241.52,11.1a.85.85,0,1,1-.85-.85A.85.85,0,0,1,241.52,11.1Z" transform="translate(0 0)"/><path class="cls-32" d="M466.18,16.43a.85.85,0,1,1-.85-.85A.85.85,0,0,1,466.18,16.43Z" transform="translate(0 0)"/><path class="cls-32" d="M238,96.14a.85.85,0,1,1-.85-.85A.85.85,0,0,1,238,96.14Z" transform="translate(0 0)"/><path class="cls-32" d="M159,76.16a.85.85,0,1,1-.85-.85A.85.85,0,0,1,159,76.16Z" transform="translate(0 0)"/><path class="cls-32" d="M73.22,91a.85.85,0,1,1-.84-.85A.85.85,0,0,1,73.22,91Z" transform="translate(0 0)"/><path class="cls-32" d="M105.08,124.88a.85.85,0,1,1-.85-.85A.85.85,0,0,1,105.08,124.88Z" transform="translate(0 0)"/><path class="cls-32" d="M135.36,111a.85.85,0,1,1-1.7,0,.85.85,0,0,1,1.7,0Z" transform="translate(0 0)"/><path class="cls-32" d="M141.51,149.51a.85.85,0,1,1-.84-.84A.85.85,0,0,1,141.51,149.51Z" transform="translate(0 0)"/><path class="cls-32" d="M62.51,129.53a.85.85,0,1,1-.85-.85A.85.85,0,0,1,62.51,129.53Z" transform="translate(0 0)"/><path class="cls-32" d="M118.39,180.34a.85.85,0,1,1-.85-.85A.85.85,0,0,1,118.39,180.34Z" transform="translate(0 0)"/><path class="cls-32" d="M110.85,176.8A.85.85,0,1,1,110,176,.85.85,0,0,1,110.85,176.8Z" transform="translate(0 0)"/><path class="cls-32" d="M101.67,182.28a.85.85,0,1,1-.85-.85A.85.85,0,0,1,101.67,182.28Z" transform="translate(0 0)"/><path class="cls-32" d="M41.67,211a.85.85,0,1,1-.85-.85A.86.86,0,0,1,41.67,211Z" transform="translate(0 0)"/><path class="cls-32" d="M35.33,242.28a.84.84,0,0,1-.84.85.85.85,0,0,1,0-1.7A.84.84,0,0,1,35.33,242.28Z" transform="translate(0 0)"/><path class="cls-32" d="M45.33,227.28a.84.84,0,0,1-.84.85.85.85,0,0,1,0-1.7A.84.84,0,0,1,45.33,227.28Z" transform="translate(0 0)"/><path class="cls-32" d="M18,222.61a.85.85,0,1,1-.85-.84A.85.85,0,0,1,18,222.61Z" transform="translate(0 0)"/><path class="cls-32" d="M16.85,253.1a.85.85,0,1,1-.85-.85A.85.85,0,0,1,16.85,253.1Z" transform="translate(0 0)"/><path class="cls-32" d="M13.69,264.61a.84.84,0,0,1-.84.85.85.85,0,1,1,0-1.69A.84.84,0,0,1,13.69,264.61Z" transform="translate(0 0)"/><path class="cls-32" d="M29.18,258.61a.85.85,0,1,1-.85-.84A.85.85,0,0,1,29.18,258.61Z" transform="translate(0 0)"/><path class="cls-32" d="M12.51,280.61a.85.85,0,1,1-.84-.84A.85.85,0,0,1,12.51,280.61Z" transform="translate(0 0)"/><path class="cls-32" d="M93.67,176.28a.85.85,0,1,1-.85-.85A.85.85,0,0,1,93.67,176.28Z" transform="translate(0 0)"/><path class="cls-32" d="M81.33,180a.84.84,0,0,1-.84.84.85.85,0,1,1,.84-.84Z" transform="translate(0 0)"/><path class="cls-32" d="M76.18,187a.85.85,0,1,1-1.69,0,.85.85,0,1,1,1.69,0Z" transform="translate(0 0)"/><path class="cls-32" d="M74.18,200.28a.85.85,0,1,1-.85-.85A.85.85,0,0,1,74.18,200.28Z" transform="translate(0 0)"/><path class="cls-32" d="M62.69,204a.85.85,0,0,1-.84.85.85.85,0,1,1,0-1.7A.84.84,0,0,1,62.69,204Z" transform="translate(0 0)"/><path class="cls-32" d="M72.74,237.08a.85.85,0,1,1-.85-.84A.85.85,0,0,1,72.74,237.08Z" transform="translate(0 0)"/><path class="cls-32" d="M27.07,329.44a.85.85,0,1,1-.85-.85A.85.85,0,0,1,27.07,329.44Z" transform="translate(0 0)"/><path class="cls-32" d="M561.33,318.18a.85.85,0,1,1-.85-.85A.85.85,0,0,1,561.33,318.18Z" transform="translate(0 0)"/><path class="cls-32" d="M261.57,213.7a.84.84,0,0,1-.84.85.85.85,0,1,1,0-1.7A.84.84,0,0,1,261.57,213.7Z" transform="translate(0 0)"/><path class="cls-32" d="M293.43,247.54a.85.85,0,1,1-.85-.85A.85.85,0,0,1,293.43,247.54Z" transform="translate(0 0)"/><path class="cls-32" d="M323.71,233.68a.85.85,0,1,1-.85-.85A.85.85,0,0,1,323.71,233.68Z" transform="translate(0 0)"/><path class="cls-32" d="M329.86,302.75a.84.84,0,0,1-.84.85.85.85,0,1,1,0-1.69A.84.84,0,0,1,329.86,302.75Z" transform="translate(0 0)"/><path class="cls-32" d="M250.86,252.19a.85.85,0,1,1-.85-.85A.85.85,0,0,1,250.86,252.19Z" transform="translate(0 0)"/><path class="cls-32" d="M181.51,244.49a.85.85,0,1,1-1.69,0,.85.85,0,0,1,1.69,0Z" transform="translate(0 0)"/><path class="cls-32" d="M213.36,308.91a.84.84,0,0,1-.84.85.85.85,0,1,1,0-1.69A.84.84,0,0,1,213.36,308.91Z" transform="translate(0 0)"/><path class="cls-32" d="M243.64,264.47a.84.84,0,0,1-.84.85.85.85,0,1,1,0-1.69A.84.84,0,0,1,243.64,264.47Z" transform="translate(0 0)"/><path class="cls-32" d="M165.7,284a.85.85,0,1,1-.85-.85A.85.85,0,0,1,165.7,284Z" transform="translate(0 0)"/><path class="cls-32" d="M249.8,333.55a.85.85,0,1,1-.84-.85A.85.85,0,0,1,249.8,333.55Z" transform="translate(0 0)"/><path class="cls-32" d="M170.8,313.56a.85.85,0,0,1-.85.85.85.85,0,1,1,.85-.85Z" transform="translate(0 0)"/><path class="cls-32" d="M132.24,251.16a.85.85,0,1,1-.84-.84A.85.85,0,0,1,132.24,251.16Z" transform="translate(0 0)"/><path class="cls-32" d="M102.51,315.58a.85.85,0,0,1-.85.85.85.85,0,1,1,.85-.85Z" transform="translate(0 0)"/><path class="cls-32" d="M132.79,301.73a.85.85,0,0,1-1.7,0,.85.85,0,0,1,1.7,0Z" transform="translate(0 0)"/><path class="cls-32" d="M139.52,332.43a.85.85,0,1,1-.85-.85A.85.85,0,0,1,139.52,332.43Z" transform="translate(0 0)"/><path class="cls-32" d="M60,320.24a.85.85,0,1,1-.85-.85A.85.85,0,0,1,60,320.24Z" transform="translate(0 0)"/><path class="cls-32" d="M396,215a.85.85,0,1,1-.85-.85A.85.85,0,0,1,396,215Z" transform="translate(0 0)"/><path class="cls-32" d="M437.13,250.1a.85.85,0,1,1-.85-.84A.85.85,0,0,1,437.13,250.1Z" transform="translate(0 0)"/><path class="cls-32" d="M467.41,236.25a.85.85,0,1,1-.85-.85A.85.85,0,0,1,467.41,236.25Z" transform="translate(0 0)"/><path class="cls-32" d="M473.57,305.32a.85.85,0,1,1-.85-.85A.85.85,0,0,1,473.57,305.32Z" transform="translate(0 0)"/><path class="cls-32" d="M415.85,255a.85.85,0,1,1-.85-.85A.85.85,0,0,1,415.85,255Z" transform="translate(0 0)"/><path class="cls-32" d="M512.54,133.12a.85.85,0,1,1-.85-.84A.85.85,0,0,1,512.54,133.12Z" transform="translate(0 0)"/><path class="cls-32" d="M19.4,184.45a.85.85,0,1,1-.85-.85A.85.85,0,0,1,19.4,184.45Z" transform="translate(0 0)"/><path class="cls-32" d="M31.21,54.09a.85.85,0,1,1-.85-.85A.85.85,0,0,1,31.21,54.09Z" transform="translate(0 0)"/><path class="cls-32" d="M554.17,50a.85.85,0,1,1-.84-.84A.84.84,0,0,1,554.17,50Z" transform="translate(0 0)"/><path class="cls-32" d="M388.85,53.58a.85.85,0,1,1-.85-.85A.85.85,0,0,1,388.85,53.58Z" transform="translate(0 0)"/><path class="cls-32" d="M420.7,87.42a.84.84,0,0,1-.84.84.85.85,0,1,1,.84-.84Z" transform="translate(0 0)"/><path class="cls-32" d="M14.85,104a.85.85,0,1,1-.85-.85A.85.85,0,0,1,14.85,104Z" transform="translate(0 0)"/><path class="cls-32" d="M86.15,197.09a.85.85,0,1,1-.85-.85A.85.85,0,0,1,86.15,197.09Z" transform="translate(0 0)"/><path class="cls-32" d="M124.18,165.28a.85.85,0,1,1-.85-.85A.85.85,0,0,1,124.18,165.28Z" transform="translate(0 0)"/><path class="cls-32" d="M62.69,220a.84.84,0,0,1-.84.84.85.85,0,1,1,.84-.84Z" transform="translate(0 0)"/><path class="cls-32" d="M16.85,13.63a.85.85,0,0,1-1.7,0,.85.85,0,0,1,1.7,0Z" transform="translate(0 0)"/><path class="cls-32" d="M422.85,64.27a.85.85,0,0,1-1.7,0,.85.85,0,0,1,1.7,0Z" transform="translate(0 0)"/><path class="cls-32" d="M487.35,13.13a.85.85,0,0,1-1.7,0,.85.85,0,1,1,1.7,0Z" transform="translate(0 0)"/><path class="cls-32" d="M451,73.56a.85.85,0,1,1-.84-.85A.85.85,0,0,1,451,73.56Z" transform="translate(0 0)"/><path class="cls-32" d="M442.18,97.61a.85.85,0,1,1-.85-.84A.85.85,0,0,1,442.18,97.61Z" transform="translate(0 0)"/><path class="cls-32" d="M378.14,92.07a.85.85,0,1,1-.85-.85A.85.85,0,0,1,378.14,92.07Z" transform="translate(0 0)"/><path class="cls-32" d="M175.39,208a.85.85,0,1,1-.85-.85A.85.85,0,0,1,175.39,208Z" transform="translate(0 0)"/><path class="cls-32" d="M151.81,142.36a.85.85,0,1,1-.85-.85A.85.85,0,0,1,151.81,142.36Z" transform="translate(0 0)"/><path class="cls-32" d="M85.09,107.4a.85.85,0,0,1-1.69,0,.85.85,0,1,1,1.69,0Z" transform="translate(0 0)"/><path class="cls-32" d="M339.62,258.86a.85.85,0,1,1-.85-.85A.85.85,0,0,1,339.62,258.86Z" transform="translate(0 0)"/><path class="cls-32" d="M488.36,269.28a.85.85,0,1,1-.85-.85A.85.85,0,0,1,488.36,269.28Z" transform="translate(0 0)"/><path class="cls-32" d="M514.36,290.61a.85.85,0,1,1-.85-.85A.85.85,0,0,1,514.36,290.61Z" transform="translate(0 0)"/><path class="cls-32" d="M306.18,272.43a.85.85,0,1,1-.85-.85A.85.85,0,0,1,306.18,272.43Z" transform="translate(0 0)"/><path class="cls-32" d="M335,321.26a.85.85,0,1,1-.85-.85A.85.85,0,0,1,335,321.26Z" transform="translate(0 0)"/><path class="cls-32" d="M327.84,218.29a.85.85,0,1,1-.84-.85A.85.85,0,0,1,327.84,218.29Z" transform="translate(0 0)"/><path class="cls-32" d="M256.51,193.14a.85.85,0,1,1-.85-.85A.85.85,0,0,1,256.51,193.14Z" transform="translate(0 0)"/><path class="cls-32" d="M497.14,301.76a.85.85,0,1,1-.85-.85A.85.85,0,0,1,497.14,301.76Z" transform="translate(0 0)"/><path class="cls-32" d="M492.52,333.58a.85.85,0,1,1-.85-.85A.85.85,0,0,1,492.52,333.58Z" transform="translate(0 0)"/><path class="cls-32" d="M502.31,233.23a.85.85,0,1,1-.85-.84A.85.85,0,0,1,502.31,233.23Z" transform="translate(0 0)"/><path class="cls-32" d="M403,174.8a.84.84,0,0,1-.84.84.85.85,0,1,1,.84-.84Z" transform="translate(0 0)"/><path class="cls-32" d="M508,100.31a.85.85,0,1,1-.85-.85A.85.85,0,0,1,508,100.31Z" transform="translate(0 0)"/><path class="cls-32" d="M423.75,132.61a.85.85,0,1,1-.85-.85A.85.85,0,0,1,423.75,132.61Z" transform="translate(0 0)"/><path class="cls-32" d="M496.18,59.73a.85.85,0,1,1-.85-.84A.85.85,0,0,1,496.18,59.73Z" transform="translate(0 0)"/><path class="cls-32" d="M553,146.11a.85.85,0,0,1-.85.85.85.85,0,1,1,.85-.85Z" transform="translate(0 0)"/><path class="cls-32" d="M486.1,165.37a.85.85,0,1,1-.85-.85A.85.85,0,0,1,486.1,165.37Z" transform="translate(0 0)"/><path class="cls-32" d="M442.35,198.77a.85.85,0,1,1-.85-.85A.85.85,0,0,1,442.35,198.77Z" transform="translate(0 0)"/><path class="cls-32" d="M442.69,160.36a.84.84,0,0,1-.84.85.85.85,0,1,1,.84-.85Z" transform="translate(0 0)"/><path class="cls-32" d="M307.19,119.11a.84.84,0,0,1-.84.85.85.85,0,1,1,.84-.85Z" transform="translate(0 0)"/><path class="cls-32" d="M363.19,154.11a.84.84,0,0,1-.84.85.85.85,0,1,1,.84-.85Z" transform="translate(0 0)"/><path class="cls-32" d="M133.85,209.77a.85.85,0,1,1-.85-.85A.85.85,0,0,1,133.85,209.77Z" transform="translate(0 0)"/><path class="cls-32" d="M54.19,267.11a.84.84,0,0,1-.84.85.85.85,0,1,1,.84-.85Z" transform="translate(0 0)"/><path class="cls-32" d="M207.35,243.27a.85.85,0,1,1-.85-.85A.85.85,0,0,1,207.35,243.27Z" transform="translate(0 0)"/><path class="cls-32" d="M176.18,296.13a.85.85,0,1,1-.84-.85A.85.85,0,0,1,176.18,296.13Z" transform="translate(0 0)"/><path class="cls-32" d="M471.33,275.28a.83.83,0,0,1-.84.84.84.84,0,0,1-.85-.84.85.85,0,0,1,.85-.85A.84.84,0,0,1,471.33,275.28Z" transform="translate(0 0)"/><path class="cls-32" d="M555.35,182.27a.85.85,0,1,1-.85-.85A.85.85,0,0,1,555.35,182.27Z" transform="translate(0 0)"/><path class="cls-32" d="M424.84,12a.85.85,0,1,1-.85-.85A.85.85,0,0,1,424.84,12Z" transform="translate(0 0)"/><path class="cls-32" d="M103.92,142.87a1.23,1.23,0,1,1-1.23-1.23A1.23,1.23,0,0,1,103.92,142.87Z" transform="translate(0 0)"/><circle class="cls-32" cx="160.68" cy="179.31" r="1.23"/><path class="cls-32" d="M450.34,241.92a1.23,1.23,0,1,1-1.23-1.23A1.24,1.24,0,0,1,450.34,241.92Z" transform="translate(0 0)"/><path class="cls-32" d="M539.13,329a1.24,1.24,0,1,1-1.23-1.23A1.23,1.23,0,0,1,539.13,329Z" transform="translate(0 0)"/><path class="cls-32" d="M158.32,313.05a1.23,1.23,0,1,1-1.23-1.23A1.23,1.23,0,0,1,158.32,313.05Z" transform="translate(0 0)"/><path class="cls-32" d="M227.2,216.78a2.19,2.19,0,1,1-2.19-2.19A2.19,2.19,0,0,1,227.2,216.78Z" transform="translate(0 0)"/><circle class="cls-32" cx="384.67" cy="71.95" r="0.96"/><circle class="cls-32" cx="126" cy="116.32" r="0.96"/><circle class="cls-32" cx="322" cy="164.66" r="0.96"/><path class="cls-32" d="M338.71,172.28a2.55,2.55,0,1,1-2.54-2.55A2.55,2.55,0,0,1,338.71,172.28Z" transform="translate(0 0)"/><path class="cls-32" d="M378.67,289.61a1,1,0,1,1-1-1A1,1,0,0,1,378.67,289.61Z" transform="translate(0 0)"/><path class="cls-32" d="M199,298.28a1,1,0,1,1-1-1A1,1,0,0,1,199,298.28Z" transform="translate(0 0)"/><circle class="cls-32" cx="513.67" cy="93.28" r="0.96"/><path class="cls-32" d="M126.69,313.2a2.19,2.19,0,1,1-2.19-2.2A2.2,2.2,0,0,1,126.69,313.2Z" transform="translate(0 0)"/><path class="cls-32" d="M209.53,288.8a2.2,2.2,0,1,1-2.19-2.19A2.2,2.2,0,0,1,209.53,288.8Z" transform="translate(0 0)"/><circle class="cls-32" cx="515" cy="63.61" r="2.19"/><circle class="cls-32" cx="18" cy="232.92" r="2.19"/><circle class="cls-32" cx="533" cy="181.61" r="2.19"/><path class="cls-32" d="M376.86,216.28a2.19,2.19,0,1,1-2.19-2.19A2.19,2.19,0,0,1,376.86,216.28Z" transform="translate(0 0)"/><path class="cls-32" d="M459,331.53a2.19,2.19,0,1,1-2.19-2.19A2.19,2.19,0,0,1,459,331.53Z" transform="translate(0 0)"/><path class="cls-32" d="M257.82,177.77a2.19,2.19,0,1,1-2.19-2.19A2.2,2.2,0,0,1,257.82,177.77Z" transform="translate(0 0)"/><path class="cls-32" d="M310.41,298.38a3.59,3.59,0,1,1-3.59-3.58A3.59,3.59,0,0,1,310.41,298.38Z" transform="translate(0 0)"/></svg>